<?xml version="1.0" encoding="iso-8859-1"?>
<!-- Generator: Adobe Illustrator 19.0.0, SVG Export Plug-In . SVG Version: 6.00 Build 0)  -->
<svg version="1.1" id="Layer_1" xmlns="http://www.w3.org/2000/svg" xmlns:xlink="http://www.w3.org/1999/xlink" x="0px" y="0px"
	 viewBox="0 0 511.984 511.984" style="enable-background:new 0 0 511.984 511.984;" xml:space="preserve">
<path style="fill:#E6E9ED;" d="M464.246,182.255L261.583,57.471c-3.43-2.109-7.75-2.117-11.179,0L47.74,182.255
	c-3.148,1.945-5.07,5.383-5.07,9.086v256.646c0,5.891,4.773,10.672,10.664,10.672h405.32c5.89,0,10.655-4.781,10.655-10.672V191.341
	C469.308,187.638,467.387,184.2,464.246,182.255z"/>
<path style="fill:#ED5564;" d="M506.244,161.201L260.927,33.206c-3.094-1.609-6.773-1.609-9.867,0L5.734,161.201
	C2.211,163.045,0,166.685,0,170.661v42.663c0,3.734,1.953,7.187,5.141,9.125c3.187,1.93,7.155,2.055,10.46,0.336L255.989,97.36
	l240.396,125.425c1.546,0.805,3.233,1.203,4.921,1.203c1.922,0,3.844-0.516,5.531-1.539c3.188-1.938,5.141-5.39,5.141-9.125v-42.663
	C511.978,166.685,509.775,163.045,506.244,161.201z"/>
<path style="fill:#434A54;" d="M255.989,234.659c-52.927,0-95.996,43.07-95.996,96.004v117.324c0,5.891,4.781,10.672,10.671,10.672
	h170.649c5.891,0,10.672-4.781,10.672-10.672V330.663C351.985,277.728,308.926,234.659,255.989,234.659z"/>
<g>
	<path style="fill:#F6BB42;" d="M287.988,191.989H223.99c-5.89,0-10.663-4.773-10.663-10.664s4.773-10.664,10.663-10.664h63.998
		c5.891,0,10.672,4.773,10.672,10.664S293.879,191.989,287.988,191.989z"/>
	<path style="fill:#F6BB42;" d="M213.327,202.66c-2.727,0-5.46-1.039-7.539-3.125c-4.172-4.164-4.172-10.921,0-15.085l3.125-3.125
		l-3.125-3.125c-4.172-4.164-4.172-10.913,0-15.085c4.164-4.164,10.914-4.164,15.085,0l10.663,10.671
		c4.164,4.164,4.164,10.914,0,15.085l-10.663,10.664C218.788,201.621,216.061,202.66,213.327,202.66z"/>
	<path style="fill:#F6BB42;" d="M298.66,202.66c-2.734,0-5.469-1.039-7.547-3.125l-10.672-10.664
		c-4.156-4.172-4.156-10.922,0-15.085l10.672-10.671c4.172-4.164,10.922-4.164,15.078,0c4.171,4.172,4.171,10.921,0,15.085
		l-3.125,3.125l3.125,3.125c4.171,4.164,4.171,10.922,0,15.085C304.113,201.621,301.379,202.66,298.66,202.66z"/>
</g>
<path style="fill:#CCD1D9;" d="M117.331,415.988c5.89,0,10.664-4.781,10.664-10.672c0-5.89-4.773-10.655-10.664-10.655H42.67v21.327
	H117.331z"/>
<path style="fill:#656D78;" d="M479.98,458.659H31.998c-5.891,0-10.664-4.781-10.664-10.672s4.773-10.672,10.664-10.672H479.98
	c5.89,0,10.671,4.781,10.671,10.672S485.87,458.659,479.98,458.659z"/>
<path style="fill:#ED5564;" d="M509.713,420.097c-2.016-2.594-5.109-4.109-8.406-4.109H373.312c-3.281,0-6.374,1.516-8.405,4.109
	c-2.016,2.578-2.734,5.953-1.938,9.141l10.671,42.669c1.188,4.75,5.453,8.078,10.343,8.078h106.668
	c4.891,0,9.155-3.328,10.343-8.078l10.672-42.669C512.463,426.051,511.744,422.676,509.713,420.097z"/>
<g>
</g>
<g>
</g>
<g>
</g>
<g>
</g>
<g>
</g>
<g>
</g>
<g>
</g>
<g>
</g>
<g>
</g>
<g>
</g>
<g>
</g>
<g>
</g>
<g>
</g>
<g>
</g>
<g>
</g>
</svg>
